<mxfile host="app.diagrams.net" modified="2023-06-08T11:36:14.060Z" agent="Mozilla/5.0 (Windows NT 10.0; Win64; x64) AppleWebKit/537.36 (KHTML, like Gecko) Chrome/114.0.0.0 Safari/537.36 Edg/114.0.1823.37" etag="3JMJZQtJSWCCWP7XYHSs" version="21.3.2" type="github">
  <diagram name="第 1 页" id="Pohkq5ADPX7uDmk34sch">
    <mxGraphModel dx="1386" dy="806" grid="1" gridSize="10" guides="1" tooltips="1" connect="1" arrows="1" fold="1" page="1" pageScale="1" pageWidth="827" pageHeight="1169" math="0" shadow="0">
      <root>
        <mxCell id="0" />
        <mxCell id="1" parent="0" />
        <mxCell id="kw0U9TSzxhxtk4IB9KD2-4" style="edgeStyle=orthogonalEdgeStyle;rounded=0;orthogonalLoop=1;jettySize=auto;html=1;" edge="1" parent="1" source="kw0U9TSzxhxtk4IB9KD2-2" target="kw0U9TSzxhxtk4IB9KD2-3">
          <mxGeometry relative="1" as="geometry" />
        </mxCell>
        <mxCell id="kw0U9TSzxhxtk4IB9KD2-15" style="edgeStyle=orthogonalEdgeStyle;rounded=0;orthogonalLoop=1;jettySize=auto;html=1;exitX=0.5;exitY=1;exitDx=0;exitDy=0;exitPerimeter=0;entryX=0.33;entryY=0.5;entryDx=0;entryDy=0;entryPerimeter=0;" edge="1" parent="1" source="kw0U9TSzxhxtk4IB9KD2-2" target="kw0U9TSzxhxtk4IB9KD2-10">
          <mxGeometry relative="1" as="geometry">
            <Array as="points">
              <mxPoint x="153" y="510" />
              <mxPoint x="409" y="510" />
            </Array>
          </mxGeometry>
        </mxCell>
        <mxCell id="kw0U9TSzxhxtk4IB9KD2-2" value="" style="points=[[0.03,0.03,0],[0.5,0,0],[0.97,0.03,0],[1,0.4,0],[0.97,0.745,0],[0.5,1,0],[0.03,0.745,0],[0,0.4,0]];verticalLabelPosition=bottom;sketch=0;html=1;verticalAlign=top;aspect=fixed;align=center;pointerEvents=1;shape=mxgraph.cisco19.workstation;fillColor=#005073;strokeColor=none;" vertex="1" parent="1">
          <mxGeometry x="90" y="270" width="125" height="100" as="geometry" />
        </mxCell>
        <mxCell id="kw0U9TSzxhxtk4IB9KD2-17" style="edgeStyle=orthogonalEdgeStyle;rounded=0;orthogonalLoop=1;jettySize=auto;html=1;entryX=0;entryY=0.5;entryDx=0;entryDy=0;" edge="1" parent="1" source="kw0U9TSzxhxtk4IB9KD2-3" target="kw0U9TSzxhxtk4IB9KD2-7">
          <mxGeometry relative="1" as="geometry" />
        </mxCell>
        <mxCell id="kw0U9TSzxhxtk4IB9KD2-3" value="" style="verticalLabelPosition=bottom;sketch=0;aspect=fixed;html=1;verticalAlign=top;strokeColor=none;align=center;outlineConnect=0;shape=mxgraph.citrix.proxy_server;" vertex="1" parent="1">
          <mxGeometry x="350" y="270" width="85" height="100" as="geometry" />
        </mxCell>
        <mxCell id="kw0U9TSzxhxtk4IB9KD2-7" value="Google" style="rounded=1;whiteSpace=wrap;html=1;" vertex="1" parent="1">
          <mxGeometry x="550" y="270" width="180" height="100" as="geometry" />
        </mxCell>
        <mxCell id="kw0U9TSzxhxtk4IB9KD2-16" style="edgeStyle=orthogonalEdgeStyle;rounded=0;orthogonalLoop=1;jettySize=auto;html=1;exitX=0.65;exitY=0.5;exitDx=0;exitDy=0;exitPerimeter=0;entryX=0.5;entryY=1;entryDx=0;entryDy=0;" edge="1" parent="1" source="kw0U9TSzxhxtk4IB9KD2-10" target="kw0U9TSzxhxtk4IB9KD2-7">
          <mxGeometry relative="1" as="geometry" />
        </mxCell>
        <mxCell id="kw0U9TSzxhxtk4IB9KD2-10" value="" style="verticalLabelPosition=bottom;verticalAlign=top;html=1;shape=mxgraph.basic.x" vertex="1" parent="1">
          <mxGeometry x="401" y="500" width="25" height="25" as="geometry" />
        </mxCell>
        <mxCell id="kw0U9TSzxhxtk4IB9KD2-18" value="&lt;b&gt;&lt;font style=&quot;font-size: 29px;&quot;&gt;正向代理（Forward Proxy）&lt;/font&gt;&lt;/b&gt;" style="text;html=1;align=center;verticalAlign=middle;resizable=0;points=[];autosize=1;strokeColor=none;fillColor=none;" vertex="1" parent="1">
          <mxGeometry x="192.5" y="100" width="400" height="50" as="geometry" />
        </mxCell>
      </root>
    </mxGraphModel>
  </diagram>
</mxfile>
